<svg xmlns="http://www.w3.org/2000/svg" width="32" height="32" viewBox="0 0 256 256"><path fill="#fff" stroke-miterlimit="10" d="M17 9c-3.019 0-5.584 1.916-6.566 4.594A3.473 3.473 0 0 0 8.5 13a3.504 3.504 0 0 0-3.45 4.092A5.006 5.006 0 0 0 1 22c0 .319.047.648.123 1h29.664c.136-.477.213-.979.213-1.5a5.485 5.485 0 0 0-2.236-4.42l2.117-.95-2.45-.097 2.258-1.638-2.787.722 1.97-2.41-2.448 1.35 1.103-2.555-2.111 2.023.576-3.037-1.584 2.557-.287-3.037-.912 2.748-.865-2.701-.328 2.379A6.99 6.99 0 0 0 17 9zm0 2c2.757 0 5 2.243 5 5v2h3.5a3.506 3.506 0 0 1 3.465 3H3.172a3 3 0 0 1 2.258-1.945l1.931-.371-.34-1.94A1.502 1.502 0 0 1 8.5 15c.291 0 .567.087.822.258l2.114 1.41.875-2.387A5.016 5.016 0 0 1 17 11z" font-family="none" font-size="none" font-weight="none" style="mix-blend-mode:normal" text-anchor="none" transform="scale(8)"/></svg>