<svg xmlns="http://www.w3.org/2000/svg" width="32" height="32" viewBox="0 0 256 256"><path fill="#3db44f" d="M21 4v24h6V4zm2 2h2v20h-2zm-10 5v17h6V11zm-8 7v10h6V18z" font-family="none" font-size="none" font-weight="none" style="mix-blend-mode:normal" text-anchor="none" transform="matrix(8 0 0 8 -1.902 -1.38)"/><path fill="#FF8600" d="M21 6h2v20h-2zm-8 5v17h6V11z" font-family="none" font-size="none" font-weight="none" style="mix-blend-mode:normal" text-anchor="none" transform="matrix(8 0 0 8 -1.902 -1.38)"/><path fill="red" d="M21 4v24h6V4zm2 2h2v20h-2z" font-family="none" font-size="none" font-weight="none" style="mix-blend-mode:normal" text-anchor="none" transform="matrix(8 0 0 8 -1.902 -1.38)"/></svg>